<svg width="256" height="256" viewBox="0 0 256 256" fill="none" xmlns="http://www.w3.org/2000/svg">
  <rect width="256" height="256" rx="64" fill="#073118"/>
  <path d="M62 79C62 68.5066 70.5066 60 81 60H175C185.493 60 194 68.5066 194 79V177C194 187.493 185.493 196 175 196H81C70.5066 196 62 187.493 62 177V79Z" fill="#E1F5EE"/>
  <path d="M92 99C92 93.4772 96.4772 89 102 89H154C159.523 89 164 93.4772 164 99V157C164 162.523 159.523 167 154 167H102C96.4771 167 92 162.523 92 157V99Z" fill="#1D9E75"/>
  <path d="M114.549 124.769C114.549 113.733 123.496 104.786 134.532 104.786H149.073C153.547 104.786 157.173 108.412 157.173 112.886C157.173 117.36 153.547 120.986 149.073 120.986H134.532C132.442 120.986 130.749 122.679 130.749 124.769C130.749 126.86 132.442 128.553 134.532 128.553H144.262C155.298 128.553 164.245 137.5 164.245 148.536C164.245 159.572 155.298 168.519 144.262 168.519H107.354C102.88 168.519 99.254 164.893 99.254 160.419C99.254 155.945 102.88 152.319 107.354 152.319H144.262C146.352 152.319 148.045 150.626 148.045 148.536C148.045 146.446 146.352 144.753 144.262 144.753H134.532C123.496 144.753 114.549 135.806 114.549 124.769Z" fill="white"/>
  <circle cx="104" cy="104" r="10" fill="#FAECE7"/>
  <circle cx="152" cy="152" r="10" fill="#E6F1FB"/>
</svg>
